Coordinates
version=1
nRows=10
nColumns=22
inDegrees=yes

Units are S.I. units (second, meters, Newtons, ...)
If the header above contains a line with 'inDegrees', this indicates whether rotational values are in degrees (yes) or radians (no).

endheader
time	pelvis_tilt	pelvis_list	pelvis_rotation	pelvis_tx	pelvis_ty	pelvis_tz	hip_flexion_r	hip_adduction_r	hip_rotation_r	knee_angle_r	ankle_angle_r	subtalar_angle_r	hip_flexion_l	hip_adduction_l	hip_rotation_l	knee_angle_l	ankle_angle_l	subtalar_angle_l	lumbar_extension	lumbar_bending	lumbar_rotation
      3.83000000	     -1.22016802	      1.03004176	     -1.74926699	      0.29893480	      0.97905683	     -0.76124717	     26.97195105	     -3.31436140	    -29.26678989	    -16.40033127	      4.41804497	      1.31079057	    -16.05694616	     -2.36593382	    -17.42032437	    -14.87808456	     10.65919039	     16.21336805	     -3.42382234	     -0.77298610	     -7.88029814
      3.84000000	     -1.22518904	      0.64237430	     -2.04565168	      0.31022007	      0.97979728	     -0.75721190	     26.81680058	     -2.82052663	    -29.28566172	    -17.30743493	      3.95025428	      0.10687486	    -16.13999537	     -3.07926225	    -17.27913793	    -15.96813550	      9.51888790	     16.65640451	     -3.13722105	     -0.30917655	     -7.95791148
      3.85000000	     -1.24285869	      0.27259155	     -2.41279971	      0.32141835	      0.98069132	     -0.75290662	     26.67839938	     -2.26659672	    -29.03579331	    -18.19468800	      3.59081485	     -1.05107988	    -16.10768602	     -3.77750628	    -17.18567813	    -17.21927577	      8.22208157	     16.98417428	     -2.84730276	      0.11448784	     -7.99017205
      3.86000000	     -1.26832000	     -0.06882099	     -2.84224525	      0.33247586	      0.98172758	     -0.74836130	     26.53911661	     -1.66174145	    -28.53469568	    -19.03387157	      3.32468827	     -2.13157639	    -15.95037925	     -4.45433523	    -17.12226098	    -18.64618958	      6.75251055	     17.18068073	     -2.56202694	      0.48778902	     -7.99213775
      3.87000000	     -1.28657319	     -0.36975645	     -3.30886063	      0.34337131	      0.98290324	     -0.74364617	     26.37112159	     -1.03685645	    -27.87220083	    -19.81121844	      3.16297509	     -3.21021196	    -15.67688515	     -5.09976073	    -17.03797610	    -20.24318264	      5.09307449	     17.24522957	     -2.29687976	      0.79818842	     -7.98607449
      3.88000000	     -1.30231920	     -0.64039237	     -3.84442398	      0.35403904	      0.98417815	     -0.73872555	     26.16744118	     -0.36188442	    -26.99929007	    -20.49154480	      3.03517672	     -4.08770322	    -15.27716193	     -5.72722457	    -17.01576965	    -22.02420455	      3.28995103	     17.17814719	     -2.05206390	      1.06333288	     -7.95627975
      3.89000000	     -1.29598210	     -0.86713457	     -4.38786239	      0.36448872	      0.98554675	     -0.73369821	     25.90132461	      0.30140074	    -26.09743778	    -21.08895926	      3.00113356	     -4.98475180	    -14.76942953	     -6.32932058	    -16.94701255	    -23.96312334	      1.33263343	     16.98836395	     -1.84571590	      1.25962546	     -7.94103316
      3.90000000	     -1.26609013	     -1.05602989	     -4.92208894	      0.37471843	      0.98697499	     -0.72863057	     25.56195883	      0.94157050	    -25.21385437	    -21.59188787	      3.07219428	     -5.85463828	    -14.15328793	     -6.91348303	    -16.82435581	    -26.05676428	     -0.73832459	     16.67941524	     -1.67870503	      1.40443111	     -7.94626821
      3.91000000	     -1.21524789	     -1.21944113	     -5.46685520	      0.38467973	      0.98843211	     -0.72350748	     25.15907565	      1.57170962	    -24.33090049	    -22.00732675	      3.16927546	     -6.52299637	    -13.43524967	     -7.49369232	    -16.71235676	    -28.29243953	     -2.82786225	     16.39194549	     -1.55677510	      1.51449469	     -7.94857449
      3.92000000	     -1.15224207	     -1.35568964	     -5.96587181	      0.39439494	      0.98987640	     -0.71839852	     24.69049266	      2.16189251	    -23.55133930	    -22.32501558	      3.36205548	     -7.18287375	    -12.59999826	     -8.07368194	    -16.53007421	    -30.65866718	     -4.87203800	     16.04587371	     -1.46572000	      1.58208190	     -7.98558012
